PathFileType	4	(X/Y/Z)	D:\TRACE\v60_Jaco2_6-2-23\JustArmDRS_Motion3_1-v60.trc
DataRate	CameraRate	NumFrames	NumMarkers	Units	OrigDataRate	OrigDataStartFrame	OrigNumFrames
100.00	100.00	      31	9	mm	100.00	7078	      8089
Frame#	Time	front left toe			Front right toe			aft left toe			aft right toe			Arm			FL body			FR body			AL Body			AR Body			
		X1	Y1	Z1	X2	Y2	Z2	X3	Y3	Z3	X4	Y4	Z4	X5	Y5	Z5	X6	Y6	Z6	X7	Y7	Z7	X8	Y8	Z8	X9	Y9	Z9	

7078	70.770	-147.44272	24.20253	-231.96878	251.85881	21.92101	-166.88899	-235.74792	11.82251	405.06265	173.32761	8.50416	419.95340	47.01867	1090.12341	-598.81329	-8.15011	587.68353	-339.04535	148.78635	586.43359	-318.86667	-120.72931	586.71521	598.70337	29.24980	576.84644	617.62408	
7079	70.780	-147.54015	24.36161	-231.87654	251.68019	21.99588	-166.77182	-235.85063	11.54711	405.23743	173.25819	8.36833	420.00052	46.67893	1090.60022	-598.36761	-8.35450	587.86957	-338.93018	148.53836	586.81976	-318.64252	-121.00761	586.26782	598.79254	29.13417	576.49762	617.76837	
7080	70.790	-147.61177	24.49854	-231.78101	251.57677	22.16023	-166.58379	-235.93791	11.29112	405.31671	173.20749	8.23644	420.06845	46.06691	1090.95032	-597.91821	-8.63483	588.10498	-338.81152	148.25560	587.14178	-318.49860	-121.23444	585.78552	598.91595	28.82824	576.03064	617.95587	
7081	70.800	-147.66785	24.57237	-231.71043	251.43312	22.27206	-166.45944	-236.10870	11.15189	405.44025	173.14319	8.10454	420.17923	45.72029	1091.34680	-597.37714	-9.06071	588.32245	-338.67999	147.99484	587.35315	-318.36755	-121.49353	585.44659	598.98596	28.55218	575.59918	618.05560	
7082	70.810	-147.73914	24.57516	-231.60011	251.22388	22.38916	-166.33492	-236.19405	10.99419	405.54294	173.11694	8.04243	420.27371	45.34594	1091.93103	-597.08453	-9.28545	588.41052	-338.43082	147.73418	587.60138	-318.15314	-122.07096	585.03918	599.22498	28.32439	575.33698	618.35626	
7083	70.820	-147.84657	24.67539	-231.56508	251.25008	22.50444	-166.10721	-236.33115	10.77185	405.65057	173.09395	7.97422	420.30380	44.69979	1092.34290	-596.60242	-9.42780	588.63684	-338.12875	148.00143	587.80988	-318.18909	-122.33829	584.75201	599.45544	27.83783	575.14539	618.54016	
7084	70.830	-147.96268	24.77033	-231.53429	251.24979	22.56436	-165.99043	-236.44385	10.60800	405.75964	172.97597	7.85542	420.35315	44.29924	1092.49780	-596.06793	-9.57620	588.83997	-337.85529	147.57841	588.10565	-317.98862	-122.57324	584.32080	599.61310	27.37130	575.18115	618.53937	
7085	70.840	-147.99411	24.84502	-231.48985	251.13969	22.61350	-165.92526	-236.56918	10.44822	405.86490	172.71736	7.67421	420.29257	43.77781	1092.80676	-595.76721	-9.68099	589.07068	-337.72592	146.97551	588.59210	-317.85535	-122.73598	583.91833	599.62830	27.52475	574.40210	618.70258	
7086	70.850	-148.09550	24.87011	-231.16510	250.97815	22.58257	-165.88069	-236.64005	10.28784	405.86014	172.54605	7.43032	420.28461	43.30299	1093.26697	-595.44568	-9.88061	589.40009	-337.63742	146.83078	588.90930	-317.76514	-122.97765	583.49762	599.79871	27.16907	574.00635	618.90594	
7087	70.860	-148.20827	24.96219	-231.06523	251.09711	22.74879	-165.83440	-236.74413	10.15827	405.88394	172.45375	7.21258	420.27264	42.74652	1093.86243	-594.78473	-10.05480	589.73645	-337.46429	146.69528	589.21576	-317.50922	-123.12824	583.23499	599.84845	27.13534	573.75415	618.95514	
7088	70.870	-148.31146	25.21632	-231.30644	250.86635	22.73019	-165.92094	-236.75642	10.00693	405.95834	172.22507	6.93601	420.28613	42.56651	1094.33276	-594.36768	-10.28866	590.08142	-337.36484	146.47533	589.43469	-317.22574	-123.17328	582.87500	599.97748	26.95294	573.56622	619.07758	
7089	70.880	-148.48376	25.48602	-231.30595	250.76718	22.76472	-165.91345	-236.75227	9.93153	405.98349	172.07530	6.69956	420.26108	42.02022	1094.85168	-593.96313	-10.53991	590.32074	-337.32166	146.40111	589.56097	-317.10654	-123.19634	582.53113	600.14429	26.78337	573.42145	619.14606	
7090	70.890	-148.68192	25.63590	-231.24625	250.63470	22.83911	-165.95445	-236.82840	9.84706	406.04364	171.94336	6.45811	420.32611	41.28110	1095.31934	-593.55408	-10.72586	590.46796	-337.25305	146.11565	589.93939	-316.98264	-123.25401	582.27570	600.32996	26.67151	573.19104	619.19458	
7091	70.900	-148.68811	25.65350	-231.20229	250.61478	22.98889	-165.93454	-236.82942	9.76458	406.05524	171.79184	6.30790	420.33749	40.59872	1095.75574	-593.16522	-11.06830	590.73932	-337.17285	145.77597	590.33966	-317.00522	-123.42841	581.99121	600.56750	26.59551	573.02130	619.21423	
7092	70.910	-148.61873	25.60562	-231.04980	250.54773	23.18472	-165.80159	-236.87263	9.69527	406.12115	171.81201	6.20904	420.44656	40.32990	1095.96362	-593.08466	-11.09005	590.98926	-336.95944	145.53955	590.76532	-316.93555	-123.41023	581.66431	600.60431	26.36733	572.57300	619.34741	
7093	70.920	-147.98645	25.71459	-231.19116	250.58369	23.30508	-165.77168	-235.92201	9.03058	406.28122	171.84448	6.06923	420.51514	39.72693	1096.31860	-592.68304	-11.10109	591.11566	-336.75195	145.45183	591.12830	-316.80975	-123.41969	581.01990	600.81525	26.20200	572.16461	619.32349	
7094	70.930	-148.00317	25.83608	-231.10762	250.53885	23.44887	-165.71236	-235.96602	8.80131	406.33786	171.63799	5.92475	420.50031	39.18655	1096.59912	-592.14709	-11.45616	591.44659	-336.72128	145.22762	591.43738	-316.69086	-123.59737	580.79755	600.97528	25.98886	571.92169	619.47992	
7095	70.940	-148.00220	25.87811	-231.02208	250.49973	23.47880	-165.77319	-235.86917	8.58974	406.37384	171.62538	5.85165	420.52719	39.10610	1096.88196	-591.76581	-11.60856	591.59418	-336.59283	145.24283	591.59113	-316.62021	-123.91958	580.32526	601.21277	25.69323	571.72272	619.72156	
7096	70.950	-147.99544	25.92100	-230.93230	250.46490	23.61691	-165.76576	-235.88133	8.45314	406.44833	171.68719	5.82561	420.60019	38.58176	1097.26294	-591.39203	-11.76620	591.73712	-336.57117	145.43600	592.00543	-316.79233	-124.03081	580.07367	601.16779	26.44304	571.31287	619.95764	
7097	70.960	-148.02907	25.98327	-230.83595	250.46829	23.68990	-165.78333	-235.98035	8.32529	406.44418	171.75308	5.79427	420.61484	37.75257	1097.74060	-590.81622	-11.85788	591.87177	-336.52744	145.40962	592.40906	-316.60962	-124.52796	579.32141	601.10730	27.11431	570.43378	619.40979	
7098	70.970	-148.07024	26.07937	-230.77814	250.49174	23.72674	-165.73517	-237.22246	9.32953	405.67206	171.76268	5.74404	420.69662	37.20042	1098.17920	-590.44379	-11.92105	592.09814	-336.52914	145.45262	592.73981	-316.34677	-124.50704	578.79919	601.27728	26.90257	569.96509	619.54565	
7099	70.980	-148.02147	26.17375	-230.73166	250.51997	23.88730	-165.69450	-236.96419	8.32503	406.71622	171.83350	5.62679	420.81168	36.41275	1098.73303	-590.13751	-11.87472	592.39172	-336.48413	145.42360	593.01996	-316.22339	-124.72436	578.49530	601.37842	26.70926	569.70703	619.83447	
7100	70.990	-147.52579	25.89084	-230.75117	250.55304	24.02699	-165.65144	-236.99315	8.19035	406.71921	171.84190	5.47274	420.85635	35.53660	1099.32410	-589.67773	-11.90289	592.68274	-336.40628	145.35184	593.24512	-316.13354	-124.93590	578.14917	601.37769	26.49633	569.36444	619.91284	
7101	71.000	-147.54510	25.95366	-230.73862	250.57294	24.12359	-165.63214	-236.98756	8.08084	406.77988	171.98834	5.25041	420.94742	35.18313	1099.82068	-589.28534	-12.00532	592.97052	-336.36823	145.21777	593.59003	-316.12747	-124.99087	577.68823	601.33380	26.54763	569.09491	619.92920	
7102	71.010	-147.67566	26.06425	-230.66490	250.56418	24.22572	-165.65413	-237.02022	7.99679	406.77875	171.83655	5.05032	420.99786	34.98006	1100.01782	-588.91138	-12.04083	593.17297	-336.12460	145.01511	594.00153	-316.03851	-125.22056	577.26318	601.35516	26.48108	568.79578	619.98383	
7103	71.020	-147.78571	26.15624	-230.59760	250.55780	24.25805	-165.63191	-237.08302	7.90297	406.73999	171.99063	4.91720	421.14435	34.51065	1100.42419	-588.49536	-12.12744	593.37311	-335.96442	144.59000	594.33771	-315.84558	-125.21690	576.87183	601.50763	26.57812	568.39801	620.04535	
7104	71.030	-148.30550	26.58488	-230.47990	250.46092	24.28203	-165.61069	-237.09706	7.89436	406.77017	171.90195	4.80528	421.20392	34.32005	1100.69360	-588.13129	-12.30175	593.50488	-335.90079	144.40413	594.53046	-315.80020	-125.24879	576.58643	601.61646	26.33624	567.99023	620.06067	
7105	71.040	-148.40033	26.66917	-230.40781	250.34720	24.33109	-165.54269	-237.14063	7.80669	406.76205	171.87090	4.56691	421.17358	34.22325	1101.02710	-587.80115	-12.46579	593.58990	-335.86331	144.19377	594.64880	-315.78052	-125.19408	576.12872	601.58398	26.21193	567.63269	620.11206	
7106	71.050	-148.51401	26.78043	-230.36836	250.36996	24.45948	-165.46896	-237.19167	7.73834	406.77496	171.72740	4.41000	421.17200	34.29000	1101.30688	-587.49475	-12.75930	593.75140	-335.86801	144.04005	594.67786	-315.71457	-125.28899	575.80048	601.58356	26.20624	567.34100	620.13824	
7107	71.060	-148.55992	26.82383	-230.31123	250.45952	24.53929	-165.42702	-237.23364	7.59991	406.75369	171.70784	4.34076	421.25659	34.27624	1101.59045	-587.19501	-12.89976	593.86450	-335.83417	143.92273	594.71497	-315.71887	-125.29195	575.39307	601.52319	26.23827	567.13312	620.19531	
7108	71.070	-148.60039	26.86475	-230.27481	250.38103	24.53605	-165.43356	-237.26418	7.48401	406.77255	171.70389	4.29466	421.27603	34.00448	1101.82373	-587.03943	-12.93900	593.94452	-335.75885	143.93491	594.77148	-315.62494	-125.37408	575.19403	601.58649	26.17261	566.94592	620.25372	
